<?xml version="1.0"?><svg fill="#FFFFFF" xmlns="http://www.w3.org/2000/svg"  viewBox="0 0 50 50" width="50px" height="50px">    <path d="M 25 2 C 13 2 5.8451563 11.770094 5.7851562 11.871094 C 5.7201562 11.979094 5.7467031 12.119266 5.8457031 12.197266 C 5.8917031 12.232266 5.946 12.25 6 12.25 C 6.064 12.25 6.1287344 12.225734 6.1777344 12.177734 C 6.2567344 12.098734 14.246 4.001 25 4 C 35.783 4.001 43.743266 12.097734 43.822266 12.177734 C 43.870266 12.226734 43.935 12.25 44 12.25 C 44.054 12.25 44.108297 12.233266 44.154297 12.197266 C 44.253297 12.119266 44.279844 11.980094 44.214844 11.871094 C 44.154844 11.770094 38 2 25 2 z M 25.003906 14.5 C 22.301906 14.504 21.905297 18.46075 21.404297 23.46875 C 20.957297 27.93775 20.400906 33.5 18.003906 33.5 C 16.101906 33.5 15.814469 28.809766 15.605469 25.384766 C 15.371469 21.540766 15.185391 18.5 13.025391 18.5 L 12.986328 18.5 C 11.160328 18.531 10.822641 20.939516 10.431641 23.728516 C 10.214641 25.276516 9.7639062 28.5 9.0039062 28.5 C 8.2299062 28.5 7.8630937 27.036531 7.4960938 25.269531 C 7.1300938 23.502531 6.7149531 21.5 5.0019531 21.5 C 3.1149531 21.5 1.9707656 25.386 2.5097656 25.5 C 3.0357656 25.611 4.612875 23.624625 4.921875 23.515625 C 5.160875 23.849625 5.3931094 24.979828 5.5371094 25.673828 C 5.9591094 27.710828 6.5379062 30.5 9.0039062 30.5 C 11.502906 30.5 11.986109 27.049859 12.412109 24.005859 C 12.560109 22.951859 12.768109 21.455766 13.037109 20.759766 C 13.372109 21.647766 13.512375 23.925812 13.609375 25.507812 C 13.895375 30.191813 14.219906 35.5 18.003906 35.5 C 22.210906 35.5 22.840531 29.213969 23.394531 23.667969 C 23.627531 21.343969 24.111859 16.507 25.005859 16.5 C 25.896859 16.507 26.379328 21.339109 26.611328 23.662109 C 27.166328 29.210109 27.797812 35.5 32.007812 35.5 C 35.789813 35.5 36.113391 30.192766 36.400391 25.509766 C 36.497391 23.927766 36.637656 21.648766 36.972656 20.759766 C 37.241656 21.456766 37.449656 22.951859 37.597656 24.005859 C 38.023656 27.049859 38.507812 30.5 41.007812 30.5 C 43.473813 30.5 44.049703 27.710828 44.470703 25.673828 C 44.613703 24.979828 44.847938 23.850625 45.085938 23.515625 C 45.395937 23.624625 46.981094 25.694 47.496094 25.5 C 48.013094 25.305 46.889906 21.5 45.003906 21.5 C 43.290906 21.5 42.876719 23.502531 42.511719 25.269531 C 42.146719 27.036531 41.781813 28.5 41.007812 28.5 C 40.246813 28.5 39.795125 25.277516 39.578125 23.728516 C 39.187125 20.938516 38.849438 18.53 37.023438 18.5 L 36.984375 18.5 C 34.824375 18.5 34.637344 21.541719 34.402344 25.386719 C 34.193344 28.810719 33.907812 33.5 32.007812 33.5 C 29.606813 33.5 29.049563 27.936844 28.601562 23.464844 C 28.101562 18.458844 27.706813 14.504 25.007812 14.5 L 25.003906 14.5 z M 6 37.775391 C 5.946 37.775391 5.8907031 37.792125 5.8457031 37.828125 C 5.7467031 37.906125 5.7201562 38.046297 5.7851562 38.154297 C 5.8451562 38.255297 13 48.025391 25 48.025391 C 38 48.025391 44.154844 38.255297 44.214844 38.154297 C 44.279844 38.045297 44.253297 37.906125 44.154297 37.828125 C 44.108297 37.792125 44.054 37.775391 44 37.775391 C 43.935 37.775391 43.870266 37.798656 43.822266 37.847656 C 43.743266 37.927656 35.783 46.024391 25 46.025391 C 14.247 46.024391 6.2567344 37.926656 6.1777344 37.847656 C 6.1287344 37.799656 6.064 37.775391 6 37.775391 z"/></svg>